<svg width="52" height="30" viewBox="0 0 52 30" fill="none" xmlns="http://www.w3.org/2000/svg">
<path d="M0.237793 11.2844V0.620331H3.24805C4.17578 0.620331 4.99609 0.825409 5.70898 1.23557C6.42188 1.64572 6.97119 2.22922 7.35693 2.98605C7.74756 3.74289 7.94531 4.61203 7.9502 5.59348V6.27463C7.9502 7.28049 7.75488 8.16183 7.36426 8.91867C6.97852 9.67551 6.42432 10.2566 5.70166 10.6618C4.98389 11.0671 4.14648 11.2746 3.18945 11.2844H0.237793ZM1.64404 1.77756V10.1345H3.12354C4.20752 10.1345 5.0498 9.79758 5.65039 9.12375C6.25586 8.44992 6.55859 7.49045 6.55859 6.24533V5.62277C6.55859 4.41183 6.27295 3.47189 5.70166 2.80295C5.13525 2.12912 4.32959 1.78732 3.28467 1.77756H1.64404ZM13.1577 11.4309C12.0835 11.4309 11.2095 11.0793 10.5356 10.3762C9.86182 9.66818 9.5249 8.72336 9.5249 7.54172V7.29269C9.5249 6.50656 9.67383 5.80588 9.97168 5.19064C10.2744 4.57053 10.6943 4.08713 11.2314 3.74045C11.7734 3.38889 12.3594 3.2131 12.9893 3.2131C14.0195 3.2131 14.8203 3.55246 15.3916 4.23117C15.9629 4.90988 16.2485 5.88156 16.2485 7.14621V7.71017H10.8799C10.8994 8.49142 11.1265 9.12375 11.561 9.60715C12.0005 10.0857 12.5571 10.3249 13.231 10.3249C13.7095 10.3249 14.1147 10.2273 14.4468 10.032C14.7788 9.83664 15.0693 9.57785 15.3184 9.25558L16.146 9.90012C15.4819 10.9206 14.4858 11.4309 13.1577 11.4309ZM12.9893 4.32639C12.4424 4.32639 11.9834 4.52658 11.6123 4.92697C11.2412 5.32248 11.0117 5.87912 10.9238 6.59689H14.8936V6.49435C14.8545 5.80588 14.6689 5.27365 14.3369 4.89767C14.0049 4.51682 13.5557 4.32639 12.9893 4.32639ZM19.2954 11.2844H17.9404V0.0343933H19.2954V11.2844ZM22.9429 11.2844H21.5879V3.35959H22.9429V11.2844ZM21.478 1.25754C21.478 1.03781 21.5439 0.852264 21.6758 0.700897C21.8125 0.54953 22.0127 0.473846 22.2764 0.473846C22.54 0.473846 22.7402 0.54953 22.877 0.700897C23.0137 0.852264 23.082 1.03781 23.082 1.25754C23.082 1.47726 23.0137 1.66037 22.877 1.80685C22.7402 1.95334 22.54 2.02658 22.2764 2.02658C22.0127 2.02658 21.8125 1.95334 21.6758 1.80685C21.5439 1.66037 21.478 1.47726 21.478 1.25754ZM27.7329 9.44601L29.6958 3.35959H31.0801L28.2383 11.2844H27.2056L24.3345 3.35959H25.7188L27.7329 9.44601ZM35.5698 11.4309C34.4956 11.4309 33.6216 11.0793 32.9478 10.3762C32.2739 9.66818 31.937 8.72336 31.937 7.54172V7.29269C31.937 6.50656 32.0859 5.80588 32.3838 5.19064C32.6865 4.57053 33.1064 4.08713 33.6436 3.74045C34.1855 3.38889 34.7715 3.2131 35.4014 3.2131C36.4316 3.2131 37.2324 3.55246 37.8037 4.23117C38.375 4.90988 38.6606 5.88156 38.6606 7.14621V7.71017H33.292C33.3115 8.49142 33.5386 9.12375 33.9731 9.60715C34.4126 10.0857 34.9692 10.3249 35.6431 10.3249C36.1216 10.3249 36.5269 10.2273 36.8589 10.032C37.1909 9.83664 37.4814 9.57785 37.7305 9.25558L38.5581 9.90012C37.894 10.9206 36.8979 11.4309 35.5698 11.4309ZM35.4014 4.32639C34.8545 4.32639 34.3955 4.52658 34.0244 4.92697C33.6533 5.32248 33.4238 5.87912 33.3359 6.59689H37.3057V6.49435C37.2666 5.80588 37.0811 5.27365 36.749 4.89767C36.417 4.51682 35.9678 4.32639 35.4014 4.32639ZM44.0659 4.57541C43.8608 4.54123 43.6387 4.52414 43.3994 4.52414C42.5107 4.52414 41.9077 4.90256 41.5903 5.65939V11.2844H40.2354V3.35959H41.5537L41.5757 4.27512C42.02 3.56711 42.6499 3.2131 43.4653 3.2131C43.729 3.2131 43.9292 3.24728 44.0659 3.31564V4.57541ZM48.043 9.29953L49.8887 3.35959H51.3389L48.1528 12.5075C47.6597 13.8259 46.876 14.4851 45.8018 14.4851L45.5454 14.4631L45.04 14.3679V13.2693L45.4062 13.2986C45.8652 13.2986 46.2217 13.2058 46.4756 13.0202C46.7344 12.8347 46.9468 12.4953 47.1128 12.0022L47.4131 11.1965L44.5859 3.35959H46.0654L48.043 9.29953ZM6.11914 24.5749H1.64404V29.2844H0.237793V18.6203H6.84424V19.7776H1.64404V23.425H6.11914V24.5749ZM7.79639 25.2487C7.79639 24.4724 7.94775 23.7741 8.25049 23.154C8.55811 22.5339 8.98291 22.0554 9.5249 21.7185C10.0718 21.3816 10.6943 21.2131 11.3926 21.2131C12.4717 21.2131 13.3433 21.5866 14.0073 22.3337C14.6763 23.0808 15.0107 24.0744 15.0107 25.3147V25.4099C15.0107 26.1814 14.8618 26.8747 14.564 27.49C14.271 28.1003 13.8486 28.5764 13.2969 28.9182C12.75 29.26 12.1201 29.4309 11.4072 29.4309C10.333 29.4309 9.46143 29.0573 8.79248 28.3103C8.12842 27.5632 7.79639 26.5744 7.79639 25.344V25.2487ZM9.15869 25.4099C9.15869 26.2888 9.36133 26.9944 9.7666 27.5266C10.1768 28.0588 10.7236 28.3249 11.4072 28.3249C12.0957 28.3249 12.6426 28.0564 13.0479 27.5193C13.4531 26.9773 13.6558 26.2204 13.6558 25.2487C13.6558 24.3796 13.4482 23.6765 13.0332 23.1394C12.623 22.5974 12.0762 22.3264 11.3926 22.3264C10.7236 22.3264 10.1841 22.5925 9.77393 23.1247C9.36377 23.657 9.15869 24.4187 9.15869 25.4099ZM16.3511 25.2487C16.3511 24.4724 16.5024 23.7741 16.8052 23.154C17.1128 22.5339 17.5376 22.0554 18.0796 21.7185C18.6265 21.3816 19.249 21.2131 19.9473 21.2131C21.0264 21.2131 21.8979 21.5866 22.562 22.3337C23.231 23.0808 23.5654 24.0744 23.5654 25.3147V25.4099C23.5654 26.1814 23.4165 26.8747 23.1187 27.49C22.8257 28.1003 22.4033 28.5764 21.8516 28.9182C21.3047 29.26 20.6748 29.4309 19.9619 29.4309C18.8877 29.4309 18.0161 29.0573 17.3472 28.3103C16.6831 27.5632 16.3511 26.5744 16.3511 25.344V25.2487ZM17.7134 25.4099C17.7134 26.2888 17.916 26.9944 18.3213 27.5266C18.7314 28.0588 19.2783 28.3249 19.9619 28.3249C20.6504 28.3249 21.1973 28.0564 21.6025 27.5193C22.0078 26.9773 22.2104 26.2204 22.2104 25.2487C22.2104 24.3796 22.0029 23.6765 21.5879 23.1394C21.1777 22.5974 20.6309 22.3264 19.9473 22.3264C19.2783 22.3264 18.7388 22.5925 18.3286 23.1247C17.9185 23.657 17.7134 24.4187 17.7134 25.4099ZM24.9351 25.2561C24.9351 24.0403 25.2231 23.0637 25.7993 22.3264C26.3755 21.5842 27.1299 21.2131 28.0625 21.2131C28.9902 21.2131 29.7251 21.5305 30.2671 22.1653V18.0344H31.6221V29.2844H30.377L30.311 28.4348C29.769 29.0988 29.0146 29.4309 28.0479 29.4309C27.1299 29.4309 26.3804 29.0549 25.7993 28.3029C25.2231 27.551 24.9351 26.5695 24.9351 25.3586V25.2561ZM26.29 25.4099C26.29 26.3083 26.4756 27.0114 26.8467 27.5193C27.2178 28.0271 27.7305 28.281 28.3848 28.281C29.2441 28.281 29.8716 27.8952 30.2671 27.1237V23.4836C29.8618 22.7365 29.2393 22.363 28.3994 22.363C27.7354 22.363 27.2178 22.6194 26.8467 23.132C26.4756 23.6447 26.29 24.404 26.29 25.4099Z" fill="black"/>
</svg>
